<?xml version="1.0" encoding="UTF-8"?>
<svg id="uuid-2ed27ae3-3651-4080-a27e-4d6a7843f2a9" data-name="Layer 1" xmlns="http://www.w3.org/2000/svg" viewBox="0 0 184.25 65.2">
  <defs>
    <style>
      .uuid-11e2fb3d-8d8f-46eb-9fe9-cc86bc4c13e5 {
        fill: #c91430;
        stroke-width: 0px;
      }
    </style>
  </defs>
  <path class="uuid-11e2fb3d-8d8f-46eb-9fe9-cc86bc4c13e5" d="m65.92,32.5c3.38,0,5.59-1.51,5.68-1.55v-6.51h-5.77v2.43h2.8v2.59c-.18.07-.94.36-2.21.36-2.93,0-4.76-2.14-4.76-5.27s2.1-5.11,4.81-5.11c2.17,0,3.38,1.04,3.56,1.15l1.36-2.1c-.16-.16-1.7-1.73-5.05-1.73-4.45,0-7.85,2.99-7.85,7.99s3.24,7.75,7.45,7.75Z"/>
  <path class="uuid-11e2fb3d-8d8f-46eb-9fe9-cc86bc4c13e5" d="m79.19,20.74c-3.13,0-5.28,2.52-5.28,5.92,0,3.22,1.9,5.79,5.48,5.79,2.44,0,4.11-1.15,4.18-1.22l-.98-1.93c-.47.23-1.54.79-2.93.79-2.19,0-2.86-1.69-2.82-2.5h7.24c0-.16.05-.47.05-.94,0-3.6-1.72-5.9-4.94-5.9Zm-2.37,4.66c.22-1.37,1.07-2.41,2.44-2.41,1.86,0,2.08,1.8,2.08,2.41h-4.52Z"/>
  <path class="uuid-11e2fb3d-8d8f-46eb-9fe9-cc86bc4c13e5" d="m99.32,26.08v6.06h3.02v-4.66c0-2.54.07-4.39-1.25-5.72-.74-.74-1.86-1.01-2.79-1.01-1.92,0-3.31,1.06-3.51,1.22-.22-.25-.98-1.22-2.71-1.22s-2.88.99-3.08,1.15v-.83h-2.57v11.08h3.02v-8.17c.18-.11,1.01-.63,1.9-.63,1.59,0,1.54,1.42,1.54,2.75v6.06h3.02v-5.56c0-1.87-.02-2-.13-2.45.2-.13,1.07-.79,2.01-.79,1.59,0,1.54,1.42,1.54,2.75Z"/>
  <path class="uuid-11e2fb3d-8d8f-46eb-9fe9-cc86bc4c13e5" d="m109.92,32.45c2.44,0,4.11-1.15,4.18-1.22l-.98-1.93c-.47.23-1.54.79-2.93.79-2.19,0-2.86-1.69-2.82-2.5h7.24c0-.16.05-.47.05-.94,0-3.6-1.72-5.9-4.94-5.9s-5.28,2.52-5.28,5.92c0,3.22,1.9,5.79,5.48,5.79Zm-.13-9.46c1.86,0,2.08,1.8,2.08,2.41h-4.52c.22-1.37,1.07-2.41,2.44-2.41Z"/>
  <path class="uuid-11e2fb3d-8d8f-46eb-9fe9-cc86bc4c13e5" d="m121.7,20.74c-3.13,0-5.28,2.52-5.28,5.92,0,3.22,1.9,5.79,5.48,5.79,2.44,0,4.11-1.15,4.18-1.22l-.98-1.93c-.47.23-1.54.79-2.93.79-2.19,0-2.86-1.69-2.82-2.5h7.24c0-.16.05-.47.05-.94,0-3.6-1.72-5.9-4.94-5.9Zm-2.37,4.66c.22-1.37,1.07-2.41,2.44-2.41,1.86,0,2.08,1.8,2.08,2.41h-4.52Z"/>
  <path class="uuid-11e2fb3d-8d8f-46eb-9fe9-cc86bc4c13e5" d="m134.6,20.74c-1.57,0-2.93,1.01-3.11,1.15v-.83h-2.57v11.08h3.02v-8.11c.18-.14,1.07-.7,2.03-.7.72,0,1.05.27,1.19.4.4.41.47,1.13.47,2.57v5.83h3.02v-5.97c0-1.44.07-3.08-1.18-4.35-.72-.72-1.7-1.08-2.86-1.08Z"/>
  <path class="uuid-11e2fb3d-8d8f-46eb-9fe9-cc86bc4c13e5" d="m142.12,27.9c0,1.55,0,2.61.94,3.56.74.74,1.86.99,2.84.99,1.63,0,2.68-.65,2.77-.72l-.76-2.09c-.2.07-.69.27-1.39.27-1.32,0-1.39-1.01-1.39-1.89v-4.44h3.13v-2.52h-3.13v-3.09h-3.02v3.09h-1.9v2.52h1.9v4.32Z"/>
  <path class="uuid-11e2fb3d-8d8f-46eb-9fe9-cc86bc4c13e5" d="m159.66,31.23l-.98-1.93c-.47.23-1.54.79-2.93.79-2.19,0-2.86-1.69-2.82-2.5h7.24c0-.16.05-.47.05-.94,0-3.6-1.72-5.9-4.94-5.9s-5.28,2.52-5.28,5.92c0,3.22,1.9,5.79,5.48,5.79,2.44,0,4.11-1.15,4.18-1.22Zm-4.32-8.24c1.86,0,2.08,1.8,2.08,2.41h-4.52c.22-1.37,1.07-2.41,2.44-2.41Z"/>
  <polygon class="uuid-11e2fb3d-8d8f-46eb-9fe9-cc86bc4c13e5" points="64.65 50.09 61.12 38.81 57.92 38.81 63.08 53.83 66.17 53.83 71.36 38.81 68.25 38.81 64.65 50.09"/>
  <path class="uuid-11e2fb3d-8d8f-46eb-9fe9-cc86bc4c13e5" d="m77.3,42.43c-3.35,0-5.7,2.48-5.7,5.92s2.24,5.79,5.48,5.79,5.72-2.43,5.72-5.97c0-3.33-2.26-5.74-5.5-5.74Zm-.02,9.19c-1.57,0-2.66-1.35-2.66-3.38s1.01-3.31,2.55-3.31,2.62,1.35,2.62,3.38-.94,3.31-2.51,3.31Z"/>
  <path class="uuid-11e2fb3d-8d8f-46eb-9fe9-cc86bc4c13e5" d="m90.21,42.43c-3.36,0-5.7,2.48-5.7,5.92s2.24,5.79,5.48,5.79,5.72-2.43,5.72-5.97c0-3.33-2.26-5.74-5.5-5.74Zm-.02,9.19c-1.57,0-2.66-1.35-2.66-3.38s1.01-3.31,2.55-3.31,2.62,1.35,2.62,3.38-.94,3.31-2.5,3.31Z"/>
  <path class="uuid-11e2fb3d-8d8f-46eb-9fe9-cc86bc4c13e5" d="m100.53,44.14v-1.4h-2.57v11.08h3.02v-7.27c.34-.5,1.25-1.6,3.09-1.6.16,0,.58.05.67.07l.69-2.3c-.07-.02-.47-.29-1.25-.29-2.19,0-3.55,1.55-3.65,1.71Z"/>
  <path class="uuid-11e2fb3d-8d8f-46eb-9fe9-cc86bc4c13e5" d="m111.6,47.03c-1.23-.5-1.99-.7-1.99-1.44,0-.45.36-1.01,1.48-1.01s2.39.65,2.5.72l.98-1.87s-1.25-.99-3.65-.99c-2.59,0-4.32,1.37-4.32,3.49s1.77,2.81,2.73,3.22c1.77.74,2.37.9,2.37,1.62,0,.54-.36,1.08-1.7,1.08s-2.64-.79-2.86-.9l-1.03,1.94c.13.11,1.77,1.26,4.27,1.26,2.68,0,4.36-1.37,4.36-3.58s-1.65-2.93-3.15-3.54Z"/>
  <path class="uuid-11e2fb3d-8d8f-46eb-9fe9-cc86bc4c13e5" d="m122.52,51.64c-2.01,0-3-1.49-3-3.42,0-1.58,1.07-3.33,3.09-3.33,1.25,0,2.17.65,2.33.77l1.21-1.87c-.16-.23-1.48-1.35-3.8-1.35-3.31,0-5.84,2.5-5.84,5.94s2.19,5.76,5.63,5.76c2.59,0,4.14-1.33,4.18-1.37l-1.16-1.93c-.09.04-1.23.81-2.64.81Z"/>
  <path class="uuid-11e2fb3d-8d8f-46eb-9fe9-cc86bc4c13e5" d="m133.71,42.43c-1.36,0-2.5.74-2.66.83v-5.74h-3.02v16.3h3.02v-8.11c.18-.13,1.07-.7,2.04-.7.71,0,1.05.27,1.19.41.4.41.47,1.12.47,2.57v5.83h3.02v-5.97c0-1.44.05-3.11-1.19-4.35-.72-.72-1.7-1.08-2.86-1.08Z"/>
  <path class="uuid-11e2fb3d-8d8f-46eb-9fe9-cc86bc4c13e5" d="m145.53,42.43c-3.35,0-5.7,2.48-5.7,5.92s2.24,5.79,5.48,5.79c3.4,0,5.72-2.43,5.72-5.97,0-3.33-2.26-5.74-5.5-5.74Zm-.02,9.19c-1.56,0-2.66-1.35-2.66-3.38s1.01-3.31,2.55-3.31,2.62,1.35,2.62,3.38-.94,3.31-2.5,3.31Z"/>
  <path class="uuid-11e2fb3d-8d8f-46eb-9fe9-cc86bc4c13e5" d="m158.55,51.6c-1.32,0-1.39-1.01-1.39-1.89v-4.44h3.13v-2.52h-3.13v-3.08h-3.02v3.08h-1.9v2.52h1.9v4.32c0,1.55,0,2.61.94,3.56.74.74,1.86.99,2.84.99,1.63,0,2.68-.65,2.77-.72l-.76-2.09c-.2.07-.69.27-1.39.27Z"/>
  <path class="uuid-11e2fb3d-8d8f-46eb-9fe9-cc86bc4c13e5" d="m167.3,42.43c-3.13,0-5.28,2.52-5.28,5.92,0,3.22,1.9,5.79,5.48,5.79,2.44,0,4.11-1.15,4.18-1.22l-.98-1.94c-.47.23-1.54.79-2.93.79-2.19,0-2.86-1.69-2.82-2.5h7.24c0-.16.05-.47.05-.94,0-3.6-1.72-5.9-4.94-5.9Zm-2.37,4.66c.22-1.37,1.07-2.41,2.44-2.41,1.86,0,2.08,1.8,2.08,2.41h-4.52Z"/>
  <path class="uuid-11e2fb3d-8d8f-46eb-9fe9-cc86bc4c13e5" d="m183.07,43.51c-.72-.72-1.7-1.08-2.86-1.08-1.57,0-2.93,1.01-3.11,1.15v-.83h-2.57v11.08h3.02v-8.11c.18-.13,1.07-.7,2.03-.7.72,0,1.05.27,1.19.41.4.41.47,1.13.47,2.57v5.83h3.02v-5.97c0-1.44.07-3.09-1.19-4.35Z"/>
  <path class="uuid-11e2fb3d-8d8f-46eb-9fe9-cc86bc4c13e5" d="m41.25,31.02c0-2.19-.76-4.22-2.15-5.73l-.05-.03s-.08-.06-.14-.07h-.19s-.05.06-.05.06h-.04s-.03.07-.03.07c-.03.05-.05.08-.06.14v.11s0,.08,0,.08c.37.85.56,1.71.56,2.57,0,2.78-1.75,5.18-4.26,5.82-.42.11-.85.17-1.29.17-.17,0-.35-.02-.58-.04-2.83-.32-4.97-2.87-4.97-5.94,0-.9.17-1.72.51-2.51v-.08s0-.13,0-.13l-.05-.12-.04-.07-.05-.02-.03-.03h-.07s-.05-.01-.08-.01c-.02,0-.04,0-.06,0l-.1.05-.08.04c-1.32,1.53-2.08,3.6-2.08,5.67,0,2.46,1.25,4.76,3.34,6.16,1.27.86,2.78,1.31,4.34,1.31,4.23,0,7.68-3.35,7.68-7.47Z"/>
  <path class="uuid-11e2fb3d-8d8f-46eb-9fe9-cc86bc4c13e5" d="m8.95,37.18c1.28.86,2.78,1.31,4.35,1.31,4.23,0,7.67-3.35,7.67-7.47,0-2.19-.75-4.22-2.14-5.73l-.05-.03s-.09-.06-.14-.07h-.19s-.05.06-.05.06h-.03s-.02.06-.02.06c-.03.04-.06.08-.06.13v.13s0,.07,0,.07c.37.85.56,1.71.56,2.57,0,2.78-1.75,5.18-4.26,5.82-.42.11-.85.17-1.29.17-.18,0-.35-.02-.58-.04-2.83-.32-4.97-2.87-4.97-5.94,0-.9.17-1.72.51-2.51v-.06c.01-.05.02-.1,0-.15l-.05-.1-.04-.08-.05-.02-.03-.03h-.08s-.13,0-.13,0l-.1.05-.08.04c-1.32,1.53-2.08,3.6-2.08,5.67,0,2.46,1.25,4.76,3.34,6.16Z"/>
  <path class="uuid-11e2fb3d-8d8f-46eb-9fe9-cc86bc4c13e5" d="m19.03,52.58c1.28.86,2.78,1.31,4.34,1.31,4.24,0,7.68-3.35,7.68-7.47,0-2.19-.76-4.22-2.14-5.73l-.07-.03-.12-.05h-.12s-.08,0-.08,0l-.04.04-.05.02-.03.07-.06.12v.11s0,.09,0,.09c.37.85.56,1.71.56,2.56,0,2.79-1.75,5.18-4.25,5.83-.42.1-.86.16-1.3.16-.17,0-.35,0-.57-.03-2.84-.33-4.97-2.87-4.97-5.95,0-.9.17-1.71.5-2.5v-.08s0-.13,0-.13l-.06-.12-.03-.07h-.04s-.04-.06-.04-.06h-.21l-.11.05-.07.04c-1.32,1.53-2.08,3.59-2.08,5.66,0,2.47,1.24,4.77,3.33,6.16Z"/>
  <path class="uuid-11e2fb3d-8d8f-46eb-9fe9-cc86bc4c13e5" d="m10.23,19.81h26.23c1.89,0,2.1-1.45,2.92-3.34H7.49c.81,1.89,1.26,3.34,2.74,3.34Z"/>
  <path class="uuid-11e2fb3d-8d8f-46eb-9fe9-cc86bc4c13e5" d="m23.4,4.37c1.2,0,2.17-.98,2.17-2.19s-.97-2.19-2.17-2.19-2.17.98-2.17,2.19.97,2.19,2.17,2.19Z"/>
  <path class="uuid-11e2fb3d-8d8f-46eb-9fe9-cc86bc4c13e5" d="m42.86,5.71c1.2,0,2.17-.98,2.17-2.19s-.97-2.19-2.17-2.19-2.17.98-2.17,2.19.97,2.19,2.17,2.19Z"/>
  <path class="uuid-11e2fb3d-8d8f-46eb-9fe9-cc86bc4c13e5" d="m3.83,5.34c1.2,0,2.17-.98,2.17-2.19S5.03.96,3.83.96,1.66,1.94,1.66,3.15s.97,2.19,2.17,2.19Z"/>
  <path class="uuid-11e2fb3d-8d8f-46eb-9fe9-cc86bc4c13e5" d="m3.8,8.08c0,1.13.91,2.05,2.04,2.05s2.04-.92,2.04-2.05-.91-2.05-2.04-2.05-2.04.92-2.04,2.05Z"/>
  <path class="uuid-11e2fb3d-8d8f-46eb-9fe9-cc86bc4c13e5" d="m15.89,10.13c1.12,0,2.04-.92,2.04-2.05s-.91-2.05-2.04-2.05-2.04.92-2.04,2.05.91,2.05,2.04,2.05Z"/>
  <path class="uuid-11e2fb3d-8d8f-46eb-9fe9-cc86bc4c13e5" d="m10.86,10.13c1.12,0,2.04-.92,2.04-2.05s-.91-2.05-2.04-2.05-2.04.92-2.04,2.05.91,2.05,2.04,2.05Z"/>
  <path class="uuid-11e2fb3d-8d8f-46eb-9fe9-cc86bc4c13e5" d="m20.91,10.13c1.12,0,2.04-.92,2.04-2.05s-.91-2.05-2.04-2.05-2.04.92-2.04,2.05.91,2.05,2.04,2.05Z"/>
  <path class="uuid-11e2fb3d-8d8f-46eb-9fe9-cc86bc4c13e5" d="m23.9,8.08c0,1.13.91,2.05,2.04,2.05s2.03-.92,2.03-2.05-.91-2.05-2.03-2.05-2.04.92-2.04,2.05Z"/>
  <path class="uuid-11e2fb3d-8d8f-46eb-9fe9-cc86bc4c13e5" d="m30.96,10.13c1.12,0,2.04-.92,2.04-2.05s-.91-2.05-2.04-2.05-2.04.92-2.04,2.05.91,2.05,2.04,2.05Z"/>
  <path class="uuid-11e2fb3d-8d8f-46eb-9fe9-cc86bc4c13e5" d="m35.99,10.13c1.12,0,2.04-.92,2.04-2.05s-.91-2.05-2.04-2.05-2.04.92-2.04,2.05.91,2.05,2.04,2.05Z"/>
  <path class="uuid-11e2fb3d-8d8f-46eb-9fe9-cc86bc4c13e5" d="m41.01,10.13c1.12,0,2.04-.92,2.04-2.05s-.91-2.05-2.04-2.05-2.04.92-2.04,2.05.91,2.05,2.04,2.05Z"/>
  <path class="uuid-11e2fb3d-8d8f-46eb-9fe9-cc86bc4c13e5" d="m43.43,16.78v3.42h0s0,17.36,0,17.36c0,7.88-3.31,12.45-4.72,14.39l-.05.06c-2.58,3.55-8.09,8.19-15.16,9.58l-.07.02-.06-.02c-7.07-1.39-12.59-6.03-15.17-9.58l-.05-.06c-1.41-1.94-4.72-6.51-4.72-14.39v-17.36h0v-3.42c-1.89,0-3.42,1.54-3.42,3.44h0v17.34C0,46.57,3.91,51.96,5.38,53.99l.06.09.05.07c2.95,4.02,9.14,9.2,17.05,10.81l.85.25.88-.25c7.92-1.6,14.12-6.8,17.07-10.82l.05-.07.05-.07c1.47-2.03,5.38-7.42,5.38-16.42v-17.34s0,0,0,0h0c0-1.9-1.53-3.44-3.42-3.44Z"/>
  <polygon class="uuid-11e2fb3d-8d8f-46eb-9fe9-cc86bc4c13e5" points="5.31 11.4 6.75 14.74 40.11 14.74 41.56 11.4 5.31 11.4"/>
</svg>